<?xml version="1.0" encoding="UTF-8" standalone="no"?>
<!DOCTYPE svg PUBLIC "-//W3C//DTD SVG 1.1//EN"
 "http://www.w3.org/Graphics/SVG/1.1/DTD/svg11.dtd">
<!-- Generated by graphviz version 7.1.0 (0)
 -->
<!-- Title: dependency&#45;cruiser output Pages: 1 -->
<svg width="195pt" height="110pt"
 viewBox="0.00 0.00 195.00 110.00" xmlns="http://www.w3.org/2000/svg" xmlns:xlink="http://www.w3.org/1999/xlink">
<g id="graph0" class="graph" transform="scale(1 1) rotate(0) translate(4 106)">
<title>dependency&#45;cruiser output</title>
<polygon fill="white" stroke="none" points="-4,4 -4,-106 191,-106 191,4 -4,4"/>
<g id="clust1" class="cluster">
<title>cluster_src</title>
<path fill="#ffffff" stroke="black" stroke-width="2" d="M20,-8C20,-8 167,-8 167,-8 173,-8 179,-14 179,-20 179,-20 179,-82 179,-82 179,-88 173,-94 167,-94 167,-94 20,-94 20,-94 14,-94 8,-88 8,-82 8,-82 8,-20 8,-20 8,-14 14,-8 20,-8"/>
<text text-anchor="middle" x="93.5" y="-82.8" font-family="Helvetica,sans-Serif" font-weight="bold" font-size="9.00">src</text>
</g>
<g id="clust2" class="cluster">
<title>cluster_src/test</title>
<path fill="#ffffff" stroke="black" stroke-width="2" d="M28,-16C28,-16 97,-16 97,-16 103,-16 109,-22 109,-28 109,-28 109,-56 109,-56 109,-62 103,-68 97,-68 97,-68 28,-68 28,-68 22,-68 16,-62 16,-56 16,-56 16,-28 16,-28 16,-22 22,-16 28,-16"/>
<text text-anchor="middle" x="62.5" y="-56.8" font-family="Helvetica,sans-Serif" font-weight="bold" font-size="9.00">test</text>
</g>
<!-- src/index.ts -->
<g id="node1" class="node">
<title>src/index.ts</title>
<g id="a_node1"><a xlink:href="src/index.ts" xlink:title="index.ts">
<path fill="#ddfeff" stroke="black" d="M165,-42C165,-42 123,-42 123,-42 120,-42 117,-39 117,-36 117,-36 117,-30 117,-30 117,-27 120,-24 123,-24 123,-24 165,-24 165,-24 168,-24 171,-27 171,-30 171,-30 171,-36 171,-36 171,-39 168,-42 165,-42"/>
<text text-anchor="start" x="125.5" y="-30.8" font-family="Helvetica,sans-Serif" font-size="9.00">index.ts</text>
</a>
</g>
</g>
<!-- src/test/index.spec.ts -->
<g id="node2" class="node">
<title>src/test/index.spec.ts</title>
<g id="a_node2"><a xlink:href="src/test/index.spec.ts" xlink:title="index.spec.ts">
<path fill="#ddfeff" stroke="black" d="M95,-42C95,-42 30,-42 30,-42 27,-42 24,-39 24,-36 24,-36 24,-30 24,-30 24,-27 27,-24 30,-24 30,-24 95,-24 95,-24 98,-24 101,-27 101,-30 101,-30 101,-36 101,-36 101,-39 98,-42 95,-42"/>
<text text-anchor="start" x="32" y="-30.8" font-family="Helvetica,sans-Serif" font-size="9.00">index.spec.ts</text>
</a>
</g>
</g>
<!-- src/test/index.spec.ts&#45;&gt;src/index.ts -->
<g id="edge1" class="edge">
<title>src/test/index.spec.ts&#45;&gt;src/index.ts</title>
<path fill="none" stroke="#000000" stroke-width="2" stroke-opacity="0.200000" d="M101.39,-33C103.47,-33 105.55,-33 107.62,-33"/>
<polygon fill="#000000" fill-opacity="0.200000" stroke="#000000" stroke-width="2" stroke-opacity="0.200000" points="107.5,-35.1 113.5,-33 107.5,-30.9 107.5,-35.1"/>
</g>
</g>
</svg>
